<svg width="35" height="35" viewBox="0 0 35 35" fill="none" xmlns="http://www.w3.org/2000/svg">
<g clip-path="url(#clip0_622_689)">
<path d="M17.0364 10.135L5.83333 20.5153V31.7188C5.83333 32.0088 5.93576 32.287 6.11809 32.4921C6.30041 32.6973 6.5477 32.8125 6.80555 32.8125L13.6148 32.7927C13.8718 32.7912 14.1178 32.6754 14.2991 32.4704C14.4804 32.2654 14.5821 31.9881 14.5821 31.6989V25.1562C14.5821 24.8662 14.6845 24.588 14.8669 24.3829C15.0492 24.1777 15.2965 24.0625 15.5543 24.0625H19.4432C19.7011 24.0625 19.9484 24.1777 20.1307 24.3829C20.313 24.588 20.4154 24.8662 20.4154 25.1562V31.6941C20.415 31.8381 20.4399 31.9807 20.4886 32.1138C20.5373 32.2468 20.6088 32.3678 20.6991 32.4698C20.7894 32.5717 20.8968 32.6525 21.0149 32.7077C21.1331 32.7629 21.2597 32.7913 21.3877 32.7913L28.1944 32.8125C28.4523 32.8125 28.6996 32.6973 28.8819 32.4921C29.0642 32.287 29.1667 32.0088 29.1667 31.7188V20.5078L17.9661 10.135C17.8344 10.0156 17.6703 9.95044 17.5012 9.95044C17.3321 9.95044 17.168 10.0156 17.0364 10.135ZM34.7326 17.1903L29.6528 12.4797V3.01123C29.6528 2.79367 29.576 2.58502 29.4392 2.43118C29.3025 2.27734 29.117 2.19092 28.9236 2.19092H25.5208C25.3274 2.19092 25.142 2.27734 25.0052 2.43118C24.8685 2.58502 24.7917 2.79367 24.7917 3.01123V7.9748L19.3515 2.93945C18.8294 2.45614 18.1743 2.19188 17.4982 2.19188C16.8221 2.19188 16.1669 2.45614 15.6449 2.93945L0.26371 17.1903C0.189875 17.259 0.128787 17.3433 0.0839387 17.4386C0.0390901 17.5338 0.0113592 17.638 0.00233057 17.7453C-0.00669809 17.8526 0.00315241 17.9608 0.0313192 18.0638C0.0594861 18.1668 0.105417 18.2626 0.166488 18.3456L1.71597 20.4647C1.77687 20.5481 1.85178 20.617 1.93642 20.6677C2.02105 20.7184 2.11374 20.7499 2.20918 20.7602C2.30462 20.7706 2.40094 20.7596 2.49263 20.7281C2.58431 20.6965 2.66956 20.6449 2.74348 20.5762L17.0364 7.33223C17.168 7.21282 17.3321 7.14771 17.5012 7.14771C17.6703 7.14771 17.8344 7.21282 17.9661 7.33223L32.2595 20.5762C32.3333 20.6449 32.4185 20.6966 32.51 20.7282C32.6016 20.7599 32.6978 20.771 32.7931 20.7609C32.8885 20.7507 32.9812 20.7195 33.0658 20.669C33.1505 20.6186 33.2254 20.5499 33.2865 20.4668L34.8359 18.3477C34.8969 18.2642 34.9427 18.1679 34.9705 18.0645C34.9983 17.961 35.0077 17.8524 34.9981 17.7448C34.9885 17.6373 34.9601 17.5329 34.9146 17.4378C34.869 17.3426 34.8072 17.2585 34.7326 17.1903Z" fill="black"/>
</g>
<defs>
<clipPath id="clip0_622_689">
<rect width="35" height="35" fill="white"/>
</clipPath>
</defs>
</svg>
